<?xml version="1.0" encoding="utf-8"?>
<!-- Generator: Adobe Illustrator 25.2.0, SVG Export Plug-In . SVG Version: 6.00 Build 0)  -->
<svg version="1.1" xmlns="http://www.w3.org/2000/svg" xmlns:xlink="http://www.w3.org/1999/xlink" x="0px" y="0px"
	 viewBox="0 0 566.93 566.93" style="enable-background:new 0 0 566.93 566.93;" xml:space="preserve">
<style type="text/css">
	.st0{fill:none;}
	.st1{font-family:'MyriadPro-Regular';}
	.st2{font-size:700px;}
	.st3{display:none;}
	.st4{display:inline;fill:none;}
	.st5{display:inline;}
	.st6{stroke:#000000;stroke-width:14;stroke-miterlimit:10;}
	.st7{fill:none;stroke:#000000;stroke-width:14;stroke-miterlimit:10;}
	.st8{fill:none;stroke:#000000;stroke-miterlimit:10;}
</style>
<g id="Слой_1">
	<rect x="3.54" y="0.46" class="st0" width="566.93" height="566.93"/>
	<text transform="matrix(1 0 0 1 111.6551 497.4496)" class="st1 st2">e</text>
</g>
<g id="Слой_2">
	<rect class="st0" width="567.84" height="565.68"/>
	<text transform="matrix(1 0 0 1 121.8706 496.9941)" class="st1 st2">x</text>
</g>
<g id="Слой_3" class="st3">
	<rect class="st4" width="566.76" height="567.84"/>
	<text transform="matrix(1 0 0 1 25.7827 496.9941)" class="st5 st1 st2">w</text>
</g>
<g id="Слой_4">
	<rect x="159.6" y="158.2" width="248.4" height="26.24"/>
</g>
<g id="Слой_5">
	<rect x="142.18" y="476.76" width="269.42" height="20.48"/>
</g>
<g id="Слой_10">
	<rect x="411.51" y="494.61" transform="matrix(0.9999 -0.0103 0.0103 0.9999 -5.0995 4.4234)" width="28.27" height="2.47"/>
</g>
<g id="Слой_11" class="st3">
	<path class="st5" d="M407.14,439.3c7.09-1.22,16.73-4.12,22.55-12.09c8.49-11.63,4.06-27.53,4.32-27.54
		c0.46-0.02-3.58,50.2-1.98,69.84c0.2,2.48,0.91,9.49-3.42,14.04c-2.03,2.14-4.41,2.93-5.94,3.42c-9.88,3.16-22.01-1.65-21.78-4.14
		c0.37-4.06,34.22-6.87,35.82-1.44c0.73,2.48-5.16,7.08-10.8,8.28c-14.24,3.04-30.7-12.35-28.62-20.88
		c0.4-1.63,2.19-5.92,14.04-8.64"/>
</g>
<g id="Слой_12">
	<rect x="398.77" y="433.76" transform="matrix(0.9174 -0.3979 0.3979 0.9174 -139.6411 202.8732)" width="40.41" height="8.25"/>
	<rect x="413.04" y="473.34" width="28.17" height="2.47"/>
	<rect x="409.85" y="437.54" transform="matrix(0.9798 -0.2 0.2 0.9798 -84.1107 93.9112)" width="25.66" height="51.3"/>
</g>
<g id="Слой_6">
	<line class="st6" x1="141.05" y1="158.39" x2="135.45" y2="497.19"/>
</g>
<g id="Слой_7">
	<line class="st7" x1="434.07" y1="158.2" x2="437.57" y2="496.99"/>
	<path class="st8" d="M430.68,417.72"/>
</g>
<g id="Слой_9">
</g>
</svg>
